<?xml version="1.0" standalone="no"?>
<!DOCTYPE svg PUBLIC "-//W3C//DTD SVG 20010904//EN"
 "http://www.w3.org/TR/2001/REC-SVG-20010904/DTD/svg10.dtd">
<svg version="1.0" xmlns="http://www.w3.org/2000/svg"
 width="527.000000pt" height="527.000000pt" viewBox="0 0 527.000000 527.000000"
 preserveAspectRatio="xMidYMid meet">
<metadata>
Created by potrace 1.11, written by Peter Selinger 2001-2013
</metadata>
<g transform="translate(0.000000,527.000000) scale(0.100000,-0.100000)"
fill="#000000" stroke="none">
<path d="M1335 4383 c-111 -40 -196 -111 -243 -204 -12 -24 -94 -233 -183
-464 -88 -231 -164 -429 -169 -440 -5 -11 -25 -60 -44 -110 -30 -78 -124 -322
-239 -620 -19 -49 -83 -214 -142 -365 -59 -151 -120 -309 -136 -350 -15 -41
-60 -157 -98 -258 -79 -202 -91 -264 -71 -364 36 -187 188 -321 379 -335 151
-11 285 55 375 186 21 29 170 398 246 606 10 28 102 266 205 530 103 264 205
529 228 589 l41 108 23 -48 c12 -27 83 -186 157 -354 184 -419 444 -1009 461
-1045 53 -118 100 -228 116 -274 91 -260 360 -373 599 -251 74 38 153 127 188
211 37 91 429 1101 613 1581 35 92 67 168 70 168 3 0 68 -141 144 -312 76
-172 148 -335 160 -363 13 -27 66 -149 120 -270 53 -121 102 -233 110 -250 7
-16 41 -93 75 -170 34 -77 68 -153 75 -170 7 -16 30 -68 51 -115 20 -47 49
-103 65 -126 179 -262 574 -233 718 53 47 94 51 247 8 344 -8 19 -24 54 -35
79 -11 25 -61 140 -112 255 -51 116 -102 233 -115 260 -12 28 -64 145 -115
260 -51 116 -137 310 -191 433 -55 122 -99 224 -99 226 0 2 -18 43 -40 90 -22
47 -40 88 -40 90 0 3 -13 33 -29 68 -16 35 -82 182 -146 328 -64 146 -123 279
-130 295 -8 17 -41 93 -75 169 -60 139 -90 190 -139 235 -136 124 -334 146
-492 56 -58 -32 -129 -104 -156 -157 -13 -24 -120 -295 -238 -603 -119 -308
-219 -569 -224 -580 -5 -11 -24 -58 -41 -105 -18 -47 -38 -98 -45 -115 -7 -16
-43 -110 -80 -207 -37 -98 -71 -178 -75 -178 -4 0 -15 19 -25 43 -23 53 -46
106 -80 182 -15 33 -49 110 -75 170 -26 61 -57 130 -68 155 -12 25 -82 185
-157 355 -75 171 -143 324 -150 340 -8 17 -41 91 -73 165 -33 74 -70 158 -82
185 -12 28 -26 59 -30 70 -74 174 -125 237 -237 292 -68 33 -85 38 -167 40
-68 3 -103 -1 -141 -14z"/>
</g>
</svg>
